<?xml version="1.0" encoding="utf-8"?>
<!-- Generator: Adobe Illustrator 25.4.1, SVG Export Plug-In . SVG Version: 6.00 Build 0)  -->
<svg version="1.1" id="Layer_1" xmlns="http://www.w3.org/2000/svg" xmlns:xlink="http://www.w3.org/1999/xlink" x="0px" y="0px"
	 viewBox="0 0 1949.9 505.3" style="enable-background:new 0 0 1949.9 505.3;" xml:space="preserve">
<style type="text/css">
	.st0{fill:#666666;}
	.st1{fill-rule:evenodd;clip-rule:evenodd;fill:#666666;}
</style>
<path class="st0" d="M1898.4,89h8.6c4.1,0,6.9-0.6,8.4-1.8c1.5-1.2,2.3-3,2.2-4.8c0-1.2-0.4-2.5-1.1-3.5c-0.7-1-1.8-1.8-3-2.3
	c-1.3-0.5-3.6-0.8-7.1-0.8h-8L1898.4,89z M1891.3,113.7V69.9h15.1c5.1,0,8.9,0.4,11.2,1.2c2.3,0.8,4.1,2.2,5.5,4.3
	c1.4,2,2.1,4.1,2.1,6.4c0,3.2-1.2,6-3.4,8.4c-2.3,2.4-5.3,3.7-9.1,4c1.5,0.6,2.8,1.4,3.7,2.3c1.7,1.7,3.9,4.6,6.5,8.7l5.3,8.6h-8.7
	l-3.9-6.9c-3.1-5.4-5.5-8.8-7.3-10.2c-1.3-1-3.2-1.5-5.6-1.5h-4.2v18.6L1891.3,113.7z M1909.1,57.1c-5.7,0-11.3,1.5-16.7,4.4
	c-5.4,2.9-9.8,7.3-12.7,12.6c-3,5.2-4.6,11.1-4.6,17.1c0,5.9,1.5,11.5,4.5,16.9c3,5.4,7.2,9.6,12.6,12.6c5.1,3,11,4.5,16.9,4.5
	c5.9,0,11.5-1.5,16.9-4.5c5.3-2.9,9.7-7.3,12.6-12.6c2.9-5.2,4.5-11,4.5-16.9c0-5.9-1.5-11.6-4.6-17.1c-2.9-5.4-7.4-9.7-12.7-12.6
	C1920.4,58.6,1914.8,57.1,1909.1,57.1 M1909.1,50.4c6.8,0,13.5,1.8,20,5.3c6.4,3.4,11.7,8.7,15.2,15.1c3.7,6.6,5.5,13.4,5.5,20.5
	c0,7-1.8,13.8-5.4,20.3c-3.5,6.4-8.7,11.6-15.1,15.1c-6.2,3.5-13.2,5.4-20.3,5.4c-7.1,0-14.1-1.9-20.3-5.4
	c-6.4-3.5-11.6-8.7-15.1-15.1c-3.5-6.2-5.4-13.2-5.4-20.3c0-7.1,1.8-13.9,5.5-20.5c3.5-6.4,8.8-11.6,15.2-15.1
	C1895.6,52.2,1902.3,50.4,1909.1,50.4"/>
<path class="st1" d="M222,0.1c-20.4,0.5-41,4.8-60.5,11.9C85.8,43.5,33.2,112.4,9.4,195.1c-4,15.5-7.3,31.1-9,47.1
	c0,0.5-1.3,16.3,1,12c2.3-3.7,3.3-9.3,4.5-13.5c11.5-38.8,25.6-74.2,47.1-107.7C104.6,57,187.5,8.1,275.2,35.2
	c16.3,5.5,30.8,13.5,45.4,23c2.7,2,23,18,18.5,3.5c-3.8-11.5-13.3-21.3-21.6-29.1C289.7,8.6,256.1-0.8,222,0.1L222,0.1z M862.1,76
	c-11.8,0-20.8,4-27.1,12.3c-6.5,8-9.5,20-9.5,35.8v114.3c-14.5-16-29.6-27.6-44.8-35.4c-10.5-5.1-21.8-8.5-33.4-10
	c-7.6-1-15.3-1.5-23-1.5c-38.3,0-69.7,13.5-93.2,40.6c-23.6,27.1-35.3,64.7-35.3,113c0,22.8,3,44.1,8.8,63.6
	c6,19.5,14.8,36.6,26.3,51.1c11.1,14.1,25.1,25.5,41.1,33.6c15.8,7.7,32.8,11.8,51.4,11.8c8.3,0,16.3-0.8,24-2.3
	c4.9-0.8,9.8-1.9,14.5-3.5c11.7-4,22.8-9.7,32.8-17c10.3-7.5,20.3-17.3,30.8-29.1v7.5c0,14.3,3.5,25.1,10.3,32.8
	c6.8,7.5,15.8,11.5,26.3,11.5c10.3,0,19.3-3.8,26.1-11c6.8-7.5,10-18.5,10-33.3V120.1c0-14.3-3-25.3-9.3-32.8
	C882.4,79.8,873.4,76,862.1,76L862.1,76z M1807.8,76c-11.8,0-20.8,4-27.1,12.3c-6.3,8-9.5,20-9.5,35.8v114.3
	c-14.5-16-29.6-27.6-44.8-35.4c-9.5-4.8-20.8-8.2-33.3-10c-7.6-1-15.3-1.5-23.1-1.5c-38.3,0-69.4,13.5-93.2,40.6
	c-23.5,27.1-35.3,64.7-35.3,113c0,22.8,3,44.1,9,63.6c6,19.5,14.5,36.6,26.1,51.1c11.1,14.1,25.1,25.5,41.1,33.6
	c15.8,7.7,32.8,11.8,51.4,11.8c8.5,0,16.5-0.8,24-2.3c5-0.7,9.8-2,14.5-3.5c11.7-4,22.8-9.7,32.8-17c10.3-7.5,20.6-17.3,30.8-29.1
	v7.5c0,14.3,3.5,25.1,10.3,32.8c7,7.5,15.8,11.5,26.3,11.5c10.8,0,19.5-3.8,26.3-11c6.8-7.5,10.3-18.5,10.3-33.3V120.1
	c0-14.3-3.3-25.3-9.5-32.8C1828.3,79.8,1819.6,76,1807.8,76L1807.8,76z M202.3,96.9c-10.6-0.3-21.1,2.1-30.5,7
	c-31.3,15.8-43.9,54.1-27.8,85.4c15.8,31.3,54.1,43.9,85.4,27.8c31.3-15.8,43.9-54.1,27.8-85.4C246.7,110.9,225.6,97.5,202.3,96.9
	L202.3,96.9z M1075.3,190.6c-22.3,0.3-42.6,4-61.1,11c-19.1,7.5-35.1,18.3-48.1,32.1c-13,14-23.1,30.8-29.8,50.4
	c-6.8,19.6-10.3,40.9-10.3,63.6c0,48.6,14,86.7,41.6,115c26.1,26.8,61.9,40.8,107.8,42.3c2.7,0.3,5.3,0.3,8,0.3
	c21.8,0,40.8-2.8,57.6-8.5c16.8-5.8,30.6-12.8,41.6-21.3c11.3-8.8,19.3-17.8,24.8-27.1c5.5-9.3,8.3-17.5,8.3-24.3
	c0-7.8-2.5-14-7.3-18.3c-5-4.2-11.5-6.5-19.3-6.5c-7.5,0-13,1.8-17,5c-7.7,7.3-15.6,14.5-23.5,21.6c-6.3,5.3-12.9,10.2-19.8,14.8
	c-7.3,4.5-14.5,8-22.3,10c-7.5,2.2-16,3.3-25.3,3.3c-2,0-4,0-5.8-0.3c-11.5-0.8-22.3-4-32.1-10c-11.3-6.8-20.6-16.8-27.3-29.8
	c-7-13.5-10.5-29.1-10.8-46.6h151.3c20.1,0,35.8-3,47.1-8.5c11-6,16.6-18.5,16.6-37.8c0-21.1-5.3-41.6-16-61.9
	c-10.8-20.1-27.1-36.6-48.6-49.4c-21.6-12.8-47.6-19-77.7-19L1075.3,190.6z M1384.8,190.6c-22.3,0.3-42.9,4-61.1,11
	c-19.1,7.5-35.1,18.3-48.4,32.1c-12.8,14-22.8,30.8-29.5,50.4c-6.8,19.6-10.3,40.9-10.3,63.6c0,48.6,13.8,86.7,41.3,115
	c26,26.8,62.1,40.8,108,42.3c2.5,0.3,5.2,0.3,8,0.3c21.6,0,40.9-2.8,57.6-8.5c16.8-5.8,30.6-12.8,41.6-21.3
	c11-8.8,19.3-17.8,24.8-27.1c5.5-9.3,8.3-17.5,8.3-24.3c0-7.8-2.5-14-7.5-18.3c-4.8-4.2-11.3-6.5-19.3-6.5c-7.3,0-12.8,1.8-16.8,5
	c-9.8,9-17.5,16.3-23.5,21.6c-6.4,5.3-13.1,10.2-20.1,14.8c-7,4.5-14.5,8-22,10c-7.8,2.2-16,3.3-25.3,3.3c-2,0-4,0-5.8-0.3
	c-11.5-0.8-22.3-4-32.1-10c-11.5-6.8-20.5-16.8-27.6-29.8c-6.8-13.5-10.3-29.1-10.5-46.6h151.1c20.3,0,36.1-3,47.1-8.5
	c11.3-6,16.8-18.5,16.8-37.8c0-21.1-5.5-41.6-16.3-61.9c-10.8-20.1-26.8-36.6-48.6-49.4c-21.6-12.8-47.3-19-77.7-19L1384.8,190.6z
	 M332.4,191.1c-11.3,0-20.1,3.7-26.3,11c-6.5,7-9.8,18-9.8,32.8v223.3c0,15,3.5,26.8,10.8,34.8c7.3,8.3,16.3,12.3,27.6,12.3
	c11.5,0,20.8-4,28.1-11.8c7.3-8,11-19.6,11-35.3v-96.5c0-31.8,1.8-53.1,5.5-64.7c5.3-14.5,13.8-25.8,25.1-34.1
	c11.3-8,23.8-12.3,37.6-12.3c21,0,35.3,6.8,42.3,20.3c7,13.5,10.5,33.1,10.5,58.6v128.5c0,15,3.5,26.8,10.8,34.8
	c7.3,8.3,16.5,12.3,28.1,12.3c11.3,0,20.5-4,27.6-12c7-7.8,10.8-19.5,10.8-35.1V314.6c0-17-0.7-31.1-2.3-41.9
	c-1.5-11-4.7-21.3-10-30.8c-8-16.3-19.8-28.8-35.8-37.6c-16-8.8-34.3-13.3-54.6-13.3c-21.1,0-39.6,4.2-55.9,12.5
	c-16,8.5-30.8,21.5-44.6,39.6v-9.5c0-9-1.5-16.8-4.7-23.3c-3.3-6.5-7.8-11.3-13.3-14.5C345.1,192.6,339.1,191.1,332.4,191.1
	L332.4,191.1z M1075.1,244.4h0.2c20,0,36.3,6.5,48.6,19.5c12.5,13,19.5,32.8,21.5,59.4h-140.3c2.8-26.1,10.3-45.9,22.6-59.1
	C1040,251,1055.8,244.4,1075.1,244.4L1075.1,244.4z M1384.6,244.4h0.3c20,0,36.3,6.5,48.6,19.5c12.3,13,19.6,32.8,21.3,59.4h-140.1
	c2.5-26.1,10-45.9,22.6-59.1C1349.5,251,1365.3,244.4,1384.6,244.4L1384.6,244.4z M746.3,249h1c13.3,0,25.6,4,36.6,11.8
	c11.5,7.8,20.6,19,27.3,33.8c6.5,14.8,10,32.6,10,53.1c0,22-3.5,40.3-10,54.9c-6.8,14.5-15.8,25.3-27.1,32.3
	c-11,7-23.6,10.5-36.9,10.5h-0.2c-13.5,0-25.8-3.8-37.1-11c-11.5-7.5-20.3-18.5-26.8-33.1c-6.5-14.8-9.8-32.6-9.8-53.6
	c0-19.8,3-37.3,9-52.1c6.3-15,14.8-26.6,26-34.6C719.5,252.7,732.3,249,746.3,249L746.3,249z M1692.2,249h0.8
	c13.3,0,25.6,4,36.8,11.8c11.3,7.8,20.3,19,27.1,33.8c6.8,14.8,10,32.6,10,53.1c0,22-3.3,40.3-10,54.9
	c-6.8,14.5-15.8,25.3-26.8,32.3c-11.1,7-24,10.6-37.1,10.5h-0.2c-13.5,0-25.8-3.8-37.1-11c-11.3-7.5-20.3-18.5-26.8-33.1
	c-6.5-14.8-9.8-32.6-9.8-53.6c0-19.8,3-37.3,9.3-52.1c6-15,14.8-26.6,25.8-34.6C1665.5,252.7,1678,249,1692.2,249L1692.2,249z
	 M245.2,251.5c-20.1,12-43.6,18.8-68.7,18.8c-5.3,0-10.3-0.2-15.5-0.8v184.4c0,17,4,29.8,11.8,38.3c8,8.8,17.8,13,30.1,13
	c12.5,0,22.8-4.3,30.6-12.8c7.8-8.5,11.8-21.3,11.8-38.6L245.2,251.5L245.2,251.5z"/>
</svg>
