<?xml version="1.0" encoding="utf-8"?>
<!-- Generator: Adobe Illustrator 25.4.1, SVG Export Plug-In . SVG Version: 6.00 Build 0)  -->
<svg version="1.1" id="Layer_1" xmlns="http://www.w3.org/2000/svg" xmlns:xlink="http://www.w3.org/1999/xlink" x="0px" y="0px"
	 viewBox="0 0 2500 431" style="enable-background:new 0 0 2500 431;" xml:space="preserve">
<style type="text/css">
	.st0{fill:#666666;}
</style>
<path class="st0" d="M750.5,372.4c-56.2,14.3-98.1,15.3-128.6,15.3c-88.7,0-191.2-44.9-191.2-170.7c0-125.4,88.2-173.6,210.3-173.6
	c21.9,0,68.2,2.4,100.7,14.8v73.6c-27.8-16.2-67.3-22.6-88.4-22.6c-72,0-131,30.1-131,107.7c0,65.4,46.3,104.9,111,104.9
	c12,0,23.5-1.9,31.5-5.6v-65.9h-52v-63h137.8V372.4z M825.7,49h234.7v63H914.6v68.7h137.8v63H914.6V319h151v63H825.7L825.7,49z
	 M1221.1,240.9h27.3c30.6,0,65.4,3.3,65.4,39.5c0,33.9-33.9,38.6-66.3,38.6h-26.3V240.9z M1132.4,382h140.2
	c59.7,0,129.8-16.7,129.8-96.4c0-40.5-23-64.4-67.3-73.4v-0.9c37.2-12.5,58.6-35.7,58.6-77.8c0-57.1-46.1-84.4-108.2-84.4h-153.1
	L1132.4,382z M1221.1,112h25.9c29.6,0,58.1,2.8,58.1,33.4c0,28.2-30.1,35.3-59,35.3h-24.9V112z M1466.6,49h234.7v63h-146v68.7h137.8
	v63h-137.8V319h151.2v63h-239.9V49z M1861.9,112h23.5c33.6,0,64.7,5.6,64.7,36.7c0,37.6-36.2,38.6-64.7,38.6h-23.5V112z M1773.3,382
	h88.7V250.3h18.6c32.9,0,44.4,14.3,62.6,71.5l19,60.2h92.4l-32.5-90.8c-16.5-40.5-18.6-65.6-47-73.4v-0.9
	c42.8-10.1,63.7-39.5,63.7-84c0-57.1-48-84-107.2-84h-158.3V382z M2110.3,49h88.9v333h-88.9V49z M2329.3,114.8h-82.1V49H2500v65.9
	h-82.1V382h-88.7V114.8z"/>
<path class="st0" d="M0,49h333.3v333.3H0L0,49z"/>
</svg>
