<?xml version="1.0" encoding="utf-8"?>
<!-- Generator: Adobe Illustrator 25.4.1, SVG Export Plug-In . SVG Version: 6.00 Build 0)  -->
<svg version="1.1" id="Layer_1" xmlns="http://www.w3.org/2000/svg" xmlns:xlink="http://www.w3.org/1999/xlink" x="0px" y="0px"
	 viewBox="0 0 2500 552.3" style="enable-background:new 0 0 2500 552.3;" xml:space="preserve">
<style type="text/css">
	.st0{fill:#666666;}
</style>
<path class="st0" d="M2306.2,174.4c-107-1.2-194.8,84.6-196,191.6c-0.1,10.5,0.6,20.9,2.2,31.3h96.9c-21.6-49,0.6-106.2,49.5-127.8
	c14.9-6.6,31.2-9.3,47.4-7.9c53.5,10.7,88.2,62.8,77.5,116.3s-62.8,88.2-116.3,77.5v96.9h38.8c38.8,0,67.8-9.7,96.9-38.8v38.8h96.9
	V358.5c0-96.9-96.9-193.8-193.8-193.8 M1618.2,164.7c-107-2.2-195.5,82.8-197.7,189.8c-0.3,14.3,1,28.7,3.9,42.7h96.9
	c-21.6-49,0.6-106.2,49.5-127.8c14.9-6.6,31.2-9.3,47.4-7.9c53.5,10.7,88.2,62.8,77.5,116.3s-62.8,88.2-116.3,77.5v96.9h38.8
	c107,0,193.8-86.8,193.8-193.8S1725.2,164.7,1618.2,164.7 M591.1,358.5V164.7h-96.9v232.6h96.9V358.5z M784.9,164.7v193.8
	c7.5,53-29.4,102-82.4,109.5c-21.8,3.1-44-1.4-62.9-12.6v96.9h38.8c107,0,193.8-86.8,193.8-193.8V164.7L784.9,164.7z M1172.5,164.7
	c-34.3,0.9-67.7,11-96.9,29.1V9.7h-96.9v387.6h96.9v-38.8c4.4-53.3,51.2-93,104.5-88.6s93,51.2,88.6,104.5s-51.2,93-104.5,88.6
	c-10.5-0.9-20.8-3.4-30.5-7.6v96.9h29.1c107,0,193.8-86.8,193.8-193.8s-86.8-193.8-193.8-193.8 M494.2,9.7H377.9L126,290.7
	l251.9,261.6h116.3L251.9,290.7L494.2,9.7z M2073.6,164.7h-96.9V9.7h-96.9v542.6h96.9V261.6h96.9V164.7z M96.9,397.3H0V0h96.9V397.3
	z"/>
</svg>
