<?xml version="1.0" encoding="utf-8"?>
<!-- Generator: Adobe Illustrator 25.4.1, SVG Export Plug-In . SVG Version: 6.00 Build 0)  -->
<svg version="1.1" id="Layer_1" xmlns="http://www.w3.org/2000/svg" xmlns:xlink="http://www.w3.org/1999/xlink" x="0px" y="0px"
	 viewBox="0 0 1000 129.6" style="enable-background:new 0 0 1000 129.6;" xml:space="preserve">
<style type="text/css">
	.st0{fill:#666666;}
</style>
<path class="st0" d="M493.4,52.1h-62.8V3.9h-19v122.4h19v-58h62.8v58h18.8V3.9h-18.8 M308.1,3.5c-6.9-0.2-20.9-0.2-33.3-0.2v122.9
	H294V79.6c4.8,0,14.7-0.4,22.7-0.6c11.2-0.2,40.4-5.8,40.2-39.5C357.2,1.5,315.1,3.5,308.1,3.5L308.1,3.5z M307.1,63.3h-12.7V19
	h10.8c5,0,34.5-2.2,35.4,20.7C341.8,62.2,318.5,63.3,307.1,63.3L307.1,63.3z M130.9,3.3l0.2,122.9h77.1v-16h-57.9V68.5h41
	c0-3.5-0.2-8.6,0-15.3h-41V19.7h57.9c-0.2-9.7,0-16.4,0-16.4L130.9,3.3z M18.8,33.3c0-20.1,26.6-20.9,42.3-8
	c5.4-15.5,5.8-16.6,5.8-16.6c-45.8-22-66.7,7.1-66.7,25.7c0,44.5,63.1,35,54,66.3c-3.2,11.4-23.5,17.9-46.9,3.7
	C5.6,109.2,2.8,115,0,120.8c30.9,16.2,71,8.4,72.3-25C74.1,53.8,18.8,56.8,18.8,33.3z M829.2,37.8c-2.8-36.5-38.2-33.7-46-34.1
	c-6.5-0.2-20.3-0.4-32.2-0.4V126h19.2V74.4c6.5,0,8.6,0,18.4-0.4l35,52h23.3l-38.7-55.2C818.6,67,830.7,58.1,829.2,37.8z M782.1,60
	c-4.3,0-7.6,0-11.9-0.2V18.3h10.1c4.8,0,30-1.5,32.2,18.6C815.2,60.7,787.3,60,782.1,60L782.1,60z M955.9,3.5h-22.2l-40.2,122.9h19
	c6-22.2,8-28.5,8-28.5l49.7-0.2c5.8,16.4,10.1,28.9,10.1,28.9h19.7L955.9,3.5z M924.9,83.8l19.4-60.7h0.2l20.3,60.5L924.9,83.8z
	 M631.4,0c-39.1,0-64.6,28.9-64.6,64.8s25.5,64.8,64.6,64.8S696,100.7,696,64.8S670.5,0,631.4,0z M631.4,111.9
	c-28.7,0-44.9-20.9-44.9-47.1c0-25.9,16.2-47.1,44.9-47.1c28.5,0,44.9,20.9,44.9,47.1C676.3,90.7,660.1,111.9,631.4,111.9z"/>
</svg>
