<?xml version="1.0" encoding="utf-8"?>
<!-- Generator: Adobe Illustrator 25.4.1, SVG Export Plug-In . SVG Version: 6.00 Build 0)  -->
<svg version="1.1" id="Layer_1" xmlns="http://www.w3.org/2000/svg" xmlns:xlink="http://www.w3.org/1999/xlink" x="0px" y="0px"
	 viewBox="0 0 2459.4 339" style="enable-background:new 0 0 2459.4 339;" xml:space="preserve">
<style type="text/css">
	.st0{fill:#666666;}
</style>
<path class="st0" d="M332.7,323.7c42.9,0,112.7-25,112.7-91.2c0-48.3-35.8-75.1-35.8-75.1s64.4-25,64.4-80.5C474,0,393.5,0,393.5,0
	H69.8L0,323.7L332.7,323.7z M302.3,76.9c0,0,28.6,0,21.5,25c-5.4,19.7-25,19.7-25,19.7H173.5l8.9-44.7H302.3z M279,193.2
	c0,0,28.6,0,21.5,25c-5.4,19.7-25,19.7-25,19.7H150.2l10.7-44.7H279z M525.9,57.2h130.6L667.2,0H538.4L525.9,57.2z M601,325.5
	l46.5-239.7h-127l-53.7,239.7H601z M810.3,262.9c-26.8,0-41.1-8.9-37.6-19.7c7.2-30.4,102-17.9,128.8-23.3
	C914,232.5,869.3,264.7,810.3,262.9 M1008.8,323.7l35.8-168.1c0-21.5-5.4-100.2-150.2-98.4C762,59,704.7,93,692.2,143.1H821
	c8.9-19.7,37.6-21.5,57.2-21.5c14.3,0,46.5,0,42.9,25c-5.4,30.4-232.5-23.3-259.4,91.2c-12.5,50.1,1.8,85.9,89.4,93
	c73.3,5.4,139.5-21.5,139.5-21.5v14.3L1008.8,323.7z M1650.9,57.2c103.7-8.9,195,46.5,202.1,123.4h-137.7c-3.6-19.7-14.3-34-34-39.4
	c-28.6-8.9-64.4,10.7-73.3,41.1c-8.9,32.2,7.2,62.6,35.8,69.8c28.6,8.9,59-8.9,68-39.4h137.7c-14.3,64.4-85.9,118.1-175.3,125.2
	c-105.5,8.9-195-46.5-202.1-125.2C1466.7,137.7,1545.4,66.2,1650.9,57.2 M2391.4,325.5l48.3-239.7h-128.8l-53.7,239.7H2391.4z
	 M1058.9,323.7h130.6l28.6-141.3c1.8-5.4,5.4-35.8,50.1-35.8c39.4,0,37.6,26.8,35.8,37.6c-1.8,8.9-28.6,139.5-28.6,139.5h135.9
	l28.6-143.1c21.5-71.5-14.3-118.1-93-118.1c-50.1,0-105.5,23.3-105.5,23.3l3.6-17.9h-130.6L1058.9,323.7z M1862,323.7h130.6
	l28.6-141.3c1.8-5.4,5.4-35.8,50.1-35.8c39.4,0,37.6,26.8,35.8,37.6c-1.8,8.9-28.6,139.5-28.6,139.5h135.9l28.6-143.1
	c21.5-71.5-14.3-118.1-93-118.1c-50.1,0-105.5,23.3-105.5,23.3L2062.3,0h-130.6L1862,323.7z M2318.1,57.2h128.8L2459.4,0h-128.8
	L2318.1,57.2z"/>
</svg>
