<?xml version="1.0" encoding="utf-8"?>
<!-- Generator: Adobe Illustrator 25.4.1, SVG Export Plug-In . SVG Version: 6.00 Build 0)  -->
<svg version="1.1" id="Layer_1" xmlns="http://www.w3.org/2000/svg" xmlns:xlink="http://www.w3.org/1999/xlink" x="0px" y="0px"
	 viewBox="0 0 2500 506.9" style="enable-background:new 0 0 2500 506.9;" xml:space="preserve">
<style type="text/css">
	.st0{fill:#666666;}
</style>
<path class="st0" d="M252.6,506.9C113.7,506.9,0,393.2,0,252.3C0,113.7,113.7,0,252.6,0c140.7,0,254.3,113.7,254.3,252.3
	C506.9,393.2,393.2,506.9,252.6,506.9L252.6,506.9z M252.6,400.8c82.7,0,148.2-65.5,148.2-148.5c0-80.9-65.5-146.4-148.2-146.4
	c-81.2,0-146.7,65.5-146.7,146.4C105.9,335.3,171.4,400.8,252.6,400.8 M1810.1,506.9c-138.9,0-252.6-113.7-252.6-254.6
	C1557.5,113.7,1671.2,0,1810.1,0c140.7,0,254.3,113.7,254.3,252.3C2064.4,393.2,1950.7,506.9,1810.1,506.9L1810.1,506.9z
	 M1810.1,400.8c82.7,0,148.2-65.5,148.2-148.5c0-80.9-65.5-146.4-148.2-146.4c-81.2,0-146.7,65.5-146.7,146.4
	C1663.4,335.3,1728.9,400.8,1810.1,400.8 M535.9,15.4v479.9h105.9V104.1h117.7v391.2h105.9V104.1H906c42.3,0,75.1,32.8,75.1,73.1
	v318.1h106.1V181c0-94.3-75.1-169.6-169.6-169.6H643.8C607.2,11.3,570.4,11.3,535.9,15.4 M2093.4,15.4v479.9h105.9V104.1H2319
	c40.3,0,75.1,32.8,75.1,73.1v318.1H2500V181c0-94.3-75.1-169.6-169.6-169.6h-131.1C2164.8,11.3,2127.9,11.3,2093.4,15.4
	 M1131.5,15.4v479.9h105.9V104.1h125.3c42.6,0,75.4,32.8,75.4,73.1c0,42.3-32.8,75.1-75.4,75.1h-90.5l163.8,243h131.1l-119.5-175.4
	c57.7-21.2,96.3-77.1,96.3-142.7c0-90.5-73.1-165.9-165.9-165.9h-140.7C1200.8,11.3,1166.1,11.3,1131.5,15.4"/>
</svg>
