<?xml version="1.0" encoding="utf-8"?>
<!-- Generator: Adobe Illustrator 25.4.1, SVG Export Plug-In . SVG Version: 6.00 Build 0)  -->
<svg version="1.1" id="Layer_1" xmlns="http://www.w3.org/2000/svg" xmlns:xlink="http://www.w3.org/1999/xlink" x="0px" y="0px"
	 viewBox="0 0 2426.5 339.6" style="enable-background:new 0 0 2426.5 339.6;" xml:space="preserve">
<style type="text/css">
	.st0{fill-rule:evenodd;clip-rule:evenodd;fill:#666666;}
</style>
<g>
	<path class="st0" d="M1831,148.9c-0.6,16.6-21.8,19.5-32.1,18.3c0-3.4-1.1-8-0.6-14.9c0.6-6.9,1.1-10.9,0.6-22.3
		C1809.2,131.1,1831.5,132.3,1831,148.9l77.9-4c0-24.6-9.2-88.2-107.7-98.5c-15.4-1.1-22.9-0.6-36.1-1.7
		c-13.2-1.2-37.8-1.1-45.2-1.1c-7.4,0-14.3-0.6-19.5-0.6c-5.7-1.1-12,1.7-12,9.2v25.8c0,6.9,1.7,16,0,23.5
		c-1.7,7.4-2.3,13.7-1.2,18.9c1.2,5.1-2.9,17.8,9.8,18.3c12.6,0.6,11.5,0,11.5,0c4.6-0.6,6.3,1.7,6.3,6.9c0,5.1-1.1,38.4-0.6,47.5
		c0.6,9.1,0,36.1,0.6,42.9c0.6,6.9-1.1,16-8,16c-6.9,0-10.3,2.3-10.3,9.2s0.6,49.8,0.6,57.2s2.3,12.6,11.5,12.6
		c9.1,0,84.7,0,92.2,0.6c7.4,0.6,11.5-2.3,11.5-10.9c0-8.6-1.1-40.7-0.6-49.2c0.6-8.6-1.7-12-5.7-12.6c-4-0.6-12.6-2.9-12.6-8.6
		s0.6-14.3,0.6-14.3c8-0.6,13.2-0.6,14.9,4.6c1.7,5.1,30.9,72.7,34.3,79.6c3.4,6.9,8.6,11.5,17.2,11.5h38.9c8.6,0,17.8,0,23.5,0.6
		c5.7,0.6,9.2-3.4,8.6-13.2c-0.6-9.7-1.7-29.8-1.1-37.2c0.6-7.4,0.6-12,0.6-19.5c0-7.4-3.5-8-9.7-8c-6.3,0-15.5,4-17.8-2.9
		c-2.3-6.9-9.8-20.6-13.8-26.3s-9.7-12.6-11.5-16c16-10.3,30.9-39.5,30.9-64.1L1831,148.9L1831,148.9z M34.6,244.5l84.2,5.7v-20.6
		c0-6.3,1.7-8.6,7.4-8c10.3,0,28.6,1.7,28.6,17.8c0,16.6-21.2,18.3-26.3,18.3s-9.7,0-9.7-7.4L34.6,244.5l-12,0
		c-10.3,0-21.8,2.9-22.3,17.2c-0.6,14.3,0,29.2,0,36.7c0,7.4-3.4,28.1,18.3,33.2c21.8,5.2,65.9,2.9,85.3,2.9s62.4,0.6,79-1.1
		c16.6-1.7,61.3-31.5,67.6-68.1c6.3-36.7-1.7-72.1-36.7-88.2C235,153.5,239,45.8,140,45.8H27.2c-11.5,0-18.9,7.4-18.9,24v57.3
		c0,8.6,8.6,12.6,16,12.6h10.3v7.4l80.2,2.9v-12c0-6.3,1.7-8.6,7.4-8c10.3,0,28.1,0.6,28.6,13.2s-21.2,14.3-26.3,14.3
		c-5.1,0-8.6,0.6-9.7-7.4l-80.2-2.9L34.6,244.5L34.6,244.5z M267.7,45.8c-7,0-12.7,5.7-12.7,12.7c0,0.4,0,0.7,0,1.1
		c0.6,7.4,1.2,51,0,60.1c0,9.2,5.7,17.2,15.5,17.8c9.7,0.6,13.7,6.3,11.5,18.9c-2.3,12.6-0.6,45.8-1.1,62.4s-0.6,16-0.6,21.2
		c0,6.9-4,9.8-11.5,9.8s-13.2,8.6-12,18.3s-2.3,43.5-2.3,51.6c0,8,4.6,13.2,17.2,13.2c12.6,0,32.6-1.7,44.7,0
		c12,1.7,61.9-1.2,73.9-1.7c12-0.6,43,0,51,0s12-7.4,12-16.6c0-9.2-1.1-52.7-0.6-64.7c0.6-12-4-14.3-12.6-14.3
		c-8.6,0-34.4,1.1-41.8,0.6c-7.4-0.6-14.9,3.4-14.3,12.6c0.6,9.2,1.1,12.6,1.1,12.6h-17.7l-1.1-28.7c0.6-5.1,0.6-6.9,6.9-7.4
		c6.3-0.6,10.3,0,14.9-0.6c4.6-0.6,6.3-5.7,6.3-15.4v-34.9c0-7.4-4-8.6-10.3-8c-6.3,0.6-9.2,2.3-14.3,2.3s-8.6-0.6-8.6-6.3
		c0-5.7-0.3-28.9,1.1-33.2c1.1-3.4,5.1-4,9.7-4.6c4.6-0.6,10.3-0.6,9.2,6.9c-1.1,7.4-1.7,21.2,12.6,20.6c14.3-0.6,22.9-2.9,29.8-2.3
		c6.9,0.6,22.3,2.3,22.9-5.7c0.6-8,1.7-29.8,1.7-44.7c0-14.9-1.2-27.5-1.2-35.5s-3.4-17.8-18.3-17.8c-14.9,0-92.2,0.6-100.8,0.6
		C319.2,46.4,272.3,45.8,267.7,45.8C267.7,45.8,272.3,45.8,267.7,45.8L267.7,45.8z M1260.1,45.8c-7,0-12.7,5.7-12.7,12.7
		c0,0.4,0,0.7,0,1.1c0.6,7.4,1.1,51,0,60.1c0,9.2,5.7,17.2,15.5,17.8c9.7,0.6,13.7,6.3,11.5,18.9c-2.3,12.6-0.6,45.8-1.1,62.4
		c-0.6,16.6-0.6,16-0.6,21.2c0,6.9-4,9.8-11.5,9.8s-13.2,8.6-12,18.3c1.1,9.7-2.3,43.5-2.3,51.6c0,8,4.6,13.2,17.2,13.2
		s32.6-1.7,44.7,0c12,1.7,61.9-1.2,73.9-1.7c12-0.6,43,0,51,0c8,0,12-7.4,12-16.6c0-9.2-1.1-52.7-0.6-64.7c0.6-12-4-14.3-12.6-14.3
		c-8.6,0-34.3,1.1-41.8,0.6c-7.4-0.6-14.9,3.4-14.3,12.6c0.6,9.2,1.1,12.6,1.1,12.6h-17.8l-1.1-28.7c0.6-5.1,0.6-6.9,6.9-7.4
		c6.3-0.6,10.3,0,14.9-0.6c4.6-0.6,6.3-5.7,6.3-15.4v-34.9c0-7.4-4-8.6-10.3-8c-6.3,0.6-9.2,2.3-14.3,2.3c-5.1,0-8.6-0.6-8.6-6.3
		c0-5.7-0.3-28.9,1.2-33.2c1.1-3.4,5.1-4,9.7-4.6c4.6-0.6,10.3-0.6,9.1,6.9c-1.1,7.4-1.7,21.2,12.6,20.6c14.3-0.6,22.9-2.9,29.8-2.3
		c6.9,0.6,22.3,2.3,22.9-5.7c0.6-8,1.7-29.8,1.7-44.7c0-14.9-1.1-27.5-1.1-35.5s-3.4-17.8-18.3-17.8c-14.9,0-92.2,0.6-100.8,0.6
		C1311.6,46.4,1264.6,45.8,1260.1,45.8C1260.1,45.8,1264.6,45.8,1260.1,45.8L1260.1,45.8z M472.1,46.4c-8-0.6-10.3,3.4-10.3,9.2
		s-1.7,69.9-1.7,76.7c0,6.9,5.1,5.7,9.2,5.7c4,0,14.9,0,13.2,13.7c-1.7,13.8-2.3,71.6-1.7,82.4c0,6.9-0.6,15.5-8.6,14.9
		c-8-0.6-9.7,5.7-9.7,12.6v57.9c0.6,10.3,0.6,13.7,14.3,13.2c13.7-0.6,81.3-1.2,89.9-0.6c8.6,0.6,12.6-2.3,12-9.7
		c-0.6-7.4-1.2-49.2-1.2-57.3c0-8-5.7-13.2-10.9-14.3c-5.2-1.1-8.6-4-8.6-8.6s0.6-31.5,0.6-31.5L630.8,331c26.9,0,61.8,1.7,67,1.1
		c5.1-0.6,13.2-2.3,13.2-15.5c0-13.2-1.1-45.8-0.6-56.1c0.6-10.3-1.7-22.3-9.7-21.2c-8.6,0-16.6-0.6-14.9-12.6
		c1.7-12,1.7-26.9,1.7-36.1c0-9.1,1.1-32.6,0.6-41.2c-0.6-8.6,1.1-15.5,9.2-15.5h10.9c3.4-8,3.4-16,2.9-24.6
		c-0.6-8.6-0.6-27.5,0.6-35.5s4.6-28.1-6.3-28.1c-10.9,0-101.9,0.6-110.5,0c-4,8-8.6,21.2-6.9,27.5c1.7,6.3,4.6,20,4.6,25.8
		c0,5.7,1.1,15.5,1.1,21.2c12,1.7,17.2,4,20.6,5.7v32.1L550.6,55c-5.1-8-17.8-12.6-25.8-10.3C516.8,47,477.8,47,472.1,46.4
		C472.1,46.4,477.8,47,472.1,46.4L472.1,46.4z M779,138.6c-21.8,13.7-84.7,80.5-27.5,162.6c22.3,32.1,83.6,36.7,109.9,35.5
		c26.3-1.2,137.4-17.2,118-126c27.5-9.1,45.8-40.1,44.7-73.3c-1.1-33.2-21.8-45.8-47-44.7c-25.2,1.1-57.3,43.5-20.6,63
		c-5.7,12.6-28.6,16-43.5,14.9c-14.9-1.1-56.1-1.1-69.9,22.9c-13.7,24.1-9.2,55,17.2,58.4c8,1.1,8-6.9,5.7-12.6
		c-2.3-5.7,4.6-17.2,19.5-18.3c14.9-1.1,20.6,10.3,10.3,27.5c-10.3,17.2-45.8,24.1-65.3,3.4c-19.5-20.6-24-63,24-72.1
		c8-14.9,10.3-22.9,13.7-29.8c3.4-6.9,3.4-12.6,3.4-12.6c-14.9-4.6-42.4-14.9-26.3-32.1s28.6,5.7,33.2,18.3c14.9,0,21.8,1.2,29.8,0
		c8-1.1,14.9,0,20.6,0c5.7,0,2.3-9.2,1.1-18.3c-1.1-9.2,3.4-22.9,3.4-30.9v-24c0.6-7.4-2.9-6.9-8.6-6.3c-5.7,0.6-19.5,1.7-26.3,1.1
		c-6.9-0.6-10.3-1.1-13.2,4.6s-2.9,4-2.9,4c-10.9-8-20.6-12-40.1-11.5c-19.5,0.6-48.7,4-65.3,28.6C760.7,95.7,773.9,134,779,138.6
		C779,138.6,773.9,134,779,138.6L779,138.6z M1115.7,245.7c12.6-7.4,12-39.5,3.4-52.7s-45.8-18.9-67.6-3.4
		c-21.8,15.4-46.4,71,2.9,126.6c49.2,55.5,165.5,3.4,164.3-62.4c-1.2-65.9,0-99.1,0-108.2c0-9.2-1.7-12,3.4-14.9
		c5.1-2.9,20.6-1.1,20.6-12s-0.6-48.7-0.6-57.8s-11.5-17.2-21.8-17.2c-10.3,0-18.9,2.3-29.8,2.9c-10.9,0.6-60.1,0-75-2.3
		c-14.9-2.3-35.5,0-41.2,2.3c-5.7,2.3-7.4,8.6-6.9,17.2c0.6,8.6,3.4,43,3.4,52.7s2.3,19.5,14.9,18.9c12.6-0.6,34.9,1.1,43.5,0.6
		s8,4,8,9.2c0,5.1,1.1,28.1-0.6,39.5c-1.7,11.5-1.7,30.9-1.1,36.6C1136.4,226.8,1132.9,255.4,1115.7,245.7
		C1115.7,245.7,1132.9,255.4,1115.7,245.7L1115.7,245.7z M1590.5,148.9c-0.6,16.6-21.8,19.5-32.1,18.3c0-3.4-1.1-8-0.6-14.9
		c0.6-6.9,1.1-10.9,0.6-22.3C1568.7,131.1,1591,132.3,1590.5,148.9l77.9-4c0-24.6-9.1-88.2-107.6-98.5c-15.5-1.1-22.9-0.6-36.1-1.7
		c-13.2-1.1-37.8-1.1-45.2-1.1c-7.4,0-14.3-0.6-19.5-0.6c-5.7-1.1-12,1.7-12,9.2v25.8c0,6.9,1.7,16,0,23.5
		c-1.7,7.4-2.3,13.7-1.1,18.9c1.1,5.1-2.9,17.8,9.7,18.3c12.6,0.6,11.5,0,11.5,0c4.6-0.6,6.3,1.7,6.3,6.9c0,5.1-1.1,38.4-0.6,47.5
		c0.6,9.1,0,36.1,0.6,42.9c0.6,6.9-1.1,16-8,16c-6.9,0-10.3,2.3-10.3,9.2s0.6,49.8,0.6,57.2s2.3,12.6,11.5,12.6
		c9.2,0,84.8,0,92.2,0.6c7.4,0.6,11.5-2.3,11.5-10.9c0-8.6-1.1-40.7-0.6-49.2c0.6-8.6-1.7-12-5.7-12.6c-4-0.6-12.6-2.9-12.6-8.6
		s0.6-14.3,0.6-14.3c8-0.6,13.2-0.6,14.9,4.6c1.7,5.1,30.9,72.7,34.4,79.6c3.4,6.9,8.6,11.5,17.2,11.5h38.9c8.6,0,17.8,0,23.5,0.6
		s9.2-3.4,8.6-13.2s-1.7-29.8-1.1-37.2c0.6-7.4,0.6-12,0.6-19.5c0-7.4-3.4-8-9.7-8s-15.4,4-17.8-2.9c-2.3-6.9-9.7-20.6-13.7-26.3
		c-4-5.7-9.7-12.6-11.5-16c16-10.3,30.9-39.5,30.9-64.1L1590.5,148.9L1590.5,148.9z M2140.8,5.7c-8,8-18.3,21.8-16,35.5
		c2.3,13.7,6.9,33.2,21.8,36.7c14.9,3.4,12.6,6.9,20.6,9.2c-9.2,11.5-10.3,17.2-18.3,20.6c-8,3.4-6.9,16,5.7,16
		c12.6,0,34.4-8,39-19.5c4.6-11.5,13.7-21.8,17.2-32.1c3.4-10.3,2.3-36.6-8-55C2192.3-1.1,2153.4-4.6,2140.8,5.7
		C2140.8,5.7,2153.4-4.6,2140.8,5.7L2140.8,5.7z"/>
	<path class="st0" d="M1919.7,46.4c-6.3-0.6-12,2.3-12,8.6c0,6.3,0.6,16,0.6,22.3s-1.1,21.2-0.6,27.5c0.6,6.3,1.1,20.1,2.9,26.3
		c1.7,6.3,3.4,9.2,10.3,8c6.9-1.1,8.6-2.3,12,4c3.5,6.3,13.2,25.2,18.3,32.1c5.1,6.9,11.5,19.5,13.7,24c-0.6,11.5,1.7,36.1,1.1,43.5
		c-0.6,7.4-1.1,12-6.3,12c-5.2,0-11.5-1.7-11.5,5.7c0,7.4-1.2,20-1.7,26.9c-0.6,6.9-1.7,23.5,0.6,29.2c2.3,5.7-0.6,14.3,9.8,14.3
		s33.2,1.1,42.4,1.1c9.1,0,45.8-2.9,53.2-2.3c7.4,0.6,13.7-4,13.7-16v-48.1c-0.6-6.9,0-10.3,0-12c-7.4-0.6-6.9,0.6-13.2,0
		c-6.3-0.6-9.7-4.6-9.7-11.5c0-6.9,5.1-27.5,4-36.1c8-8.6,34.4-49.8,40.1-56.7c5.7-6.9,10.9-10.9,16.6-10.9s11.5-0.6,16.6-1.1
		c1.1-13.7,2.3-29.8,2.9-37.8c0.6-8,1.1-14.9,0-21.8c-1.1-6.9-0.6-17.8-0.6-23.5c0-5.7-4-9.2-9.1-8.6c-5.2,0.6-22.9,2.3-34.4,1.7
		c-11.5-0.6-24-2.9-31.5-2.9c-7.4,0-20.6,2.9-22.3,8.6c-1.7,5.7-1.1,12.6-1.1,19.5c0,6.9,0.6,21.2,0,28.6s-1.1,10.9-1.1,15.5
		s1.7,8,12.6,8l-20,36.6l-17.8-35.5c5.7,0,11.5-0.6,11.5-9.2c0-8.6-0.6-18.9,0.6-26.9c1.1-8,1.1-18.9,2.3-26.9
		c1.2-8-2.9-20.6-13.7-18.9c-10.9,1.7-35.5,4-43.5,3.4C1943.4,46.9,1931.6,46.5,1919.7,46.4C1919.7,46.4,1927.2,46.4,1919.7,46.4z
		 M2243.8,215.3c-7.4,0.6-25.8,1.7-34.3,0.6c-8.6-1.1-21.8-1.7-21.8,6.9c0,8.6,1.7,32.7,1.7,40.7c0,8-0.6,50.4-0.6,56.7
		c0,6.3,2.9,10.3,10.9,10.9c8,0.6,33.2-0.6,38.4,0c5.1,0.6,9.7,1.1,13.7-5.2c4-6.3,3.5-4,6.9-1.7c3.4,2.3,21.2,10.9,32.1,12
		c10.9,1.1,50.4,7.4,71.6-21.2c21.2-28.7,30.3-92.8-1.7-127.1c-32.1-34.4-53.3-36.7-65.3-47c-12-10.3-12-16.6-6.9-23.5
		c5.2-6.9,27.5-2.3,32.7,17.8c1.1,6.3,4.6,9.7,11.5,9.2c6.9-0.6,29.2-2.3,34.9-1.7c5.7,0.6,8.6-1.1,8.6-10.3
		c0-9.2,1.1-61.8,1.7-72.1c0.6-10.3-4.6-14.3-10.3-14.3c-5.7,0-27.5,1.1-32.7,0.6c-5.1-0.6-9.1,2.3-11.5,8
		c-10.9-4-32.1-11.5-49.8-9.7c-17.8,1.7-45.2,14.9-56.1,33.8c-10.9,18.9-21.2,81.9,16.6,106.5c37.8,24.6,46.4,33.2,55.5,41.8
		c9.2,8.6,8,20.6,3.4,24.6c-4.6,4-29.2,8-33.2-12s-4-6.9-4.6-13.8C2254.7,218.8,2249,214.8,2243.8,215.3
		C2243.8,215.3,2249,214.8,2243.8,215.3L2243.8,215.3z M2406.5,295.6c9.5,0,16.3,7.3,16.3,17.2c0,10.2-7.3,17.8-16.7,17.8
		c-9.5,0-16.9-7.6-16.9-17.8C2389.1,302.9,2396.9,295.6,2406.5,295.6l-0.5-3.4c-11.3,0-20.5,9.1-20.6,20.4c0,0.1,0,0.1,0,0.2
		c0,11.3,9.2,20.5,20.5,20.5c11.3,0,20.5-9.2,20.5-20.5c0-11.7-9.4-20.6-20.5-20.6L2406.5,295.6z"/>
	<path class="st0" d="M2401.8,303.9h4.9c2.5,0,5.2,0.5,5.2,3.7c0,3.8-3,4-6.3,4h-3.9v3h3.9l6.5,10.4h4l-6.8-10.7
		c3.5-0.4,6.3-2.2,6.3-6.6c0-4.7-2.7-6.9-8.3-6.9h-9.2V325h3.7L2401.8,303.9L2401.8,303.9z"/>
</g>
</svg>
